<svg width="61" height="61" viewBox="0 0 61 61" fill="none" xmlns="http://www.w3.org/2000/svg">
<path d="M30.5 0C13.6822 0 0 13.6822 0 30.5C0 47.3178 13.6822 61 30.5 61C47.3178 61 61 47.3178 61 30.5C61 13.6822 47.3178 0 30.5 0ZM50.6657 14.0652C54.2941 18.4983 56.4913 24.1446 56.5486 30.2935C55.6897 30.1119 47.0766 28.3649 38.4082 29.455C37.7008 27.7282 37.0331 26.2091 36.1186 24.3372C45.7509 20.4045 50.1164 14.8081 50.6657 14.0652ZM47.7695 11.0526C47.3009 11.72 43.3794 16.991 34.1157 20.4632C29.8467 12.6197 25.1152 6.17637 24.3951 5.21218C32.6566 3.2207 41.3627 5.36837 47.7695 11.0526ZM19.4242 6.96335C20.1111 7.90528 24.7664 14.3566 29.083 22.03C16.8969 25.2661 6.16371 25.2194 4.99856 25.2041C6.68786 17.12 12.1358 10.4011 19.4242 6.96335ZM4.44833 30.5397C4.44833 30.2733 4.45362 30.0082 4.46161 29.7437C5.60142 29.767 18.226 29.9297 31.2359 26.0362C31.9817 27.4958 32.6942 28.9773 33.3481 30.4573C23.9276 33.1107 15.3686 40.7298 11.1457 47.9587C6.98475 43.3401 4.44833 37.2309 4.44833 30.5397ZM14.5093 51.0919C17.2305 45.529 24.6158 38.3481 35.1188 34.7651C38.7763 44.2696 40.2889 52.2353 40.6763 54.521C32.2996 58.0891 22.2269 57.1101 14.5093 51.0919ZM45.056 52.1359C44.789 50.5512 43.4024 42.9248 39.995 33.5613C48.1586 32.2545 55.3311 34.3937 56.2223 34.6749C55.0611 41.9237 50.9004 48.184 45.056 52.1359Z" fill="white"/>
</svg>
