<svg width="61" height="61" viewBox="0 0 61 61" fill="none" xmlns="http://www.w3.org/2000/svg">
<mask id="path-1-inside-1_127_59" fill="white">
<path d="M13.8268 60.3737H1.30977V20.0653H13.8268V60.3737ZM7.56154 14.5668C3.559 14.5668 0.3125 11.2516 0.3125 7.24904C0.3125 5.32648 1.07624 3.48266 2.4357 2.1232C3.79516 0.763736 5.63898 0 7.56154 0C9.48411 0 11.3279 0.763736 12.6874 2.1232C14.0468 3.48266 14.8106 5.32648 14.8106 7.24904C14.8106 11.2516 11.5627 14.5668 7.56154 14.5668ZM60.674 60.3737H48.1839V40.7518C48.1839 36.0754 48.0896 30.0783 41.6761 30.0783C35.1683 30.0783 34.171 35.159 34.171 40.4149V60.3737H21.6675V20.0653H33.6724V25.5637H33.8476C35.5187 22.3967 39.6007 19.0545 45.6908 19.0545C58.3587 19.0545 60.6875 27.3965 60.6875 38.2317V60.3737H60.674Z"/>
</mask>
<path d="M13.8268 60.3737V62.3737H15.8268V60.3737H13.8268ZM1.30977 60.3737H-0.690234V62.3737H1.30977V60.3737ZM1.30977 20.0653V18.0653H-0.690234V20.0653H1.30977ZM13.8268 20.0653H15.8268V18.0653H13.8268V20.0653ZM0.3125 7.24904H-1.6875H0.3125ZM7.56154 0V2V0ZM14.8106 7.24904H16.8106H14.8106ZM48.1839 60.3737H46.1839V62.3737H48.1839V60.3737ZM34.171 60.3737V62.3737H36.171V60.3737H34.171ZM21.6675 60.3737H19.6675V62.3737H21.6675V60.3737ZM21.6675 20.0653V18.0653H19.6675V20.0653H21.6675ZM33.6724 20.0653H35.6724V18.0653H33.6724V20.0653ZM33.6724 25.5637H31.6724C31.6724 26.6683 32.5678 27.5637 33.6724 27.5637V25.5637ZM33.8476 25.5637V27.5637C34.5894 27.5637 35.2702 27.1531 35.6164 26.497L33.8476 25.5637ZM60.6875 60.3737V62.3737H62.6875V60.3737H60.6875ZM13.8268 58.3737H1.30977V62.3737H13.8268V58.3737ZM3.30977 60.3737V20.0653H-0.690234V60.3737H3.30977ZM1.30977 22.0653H13.8268V18.0653H1.30977V22.0653ZM11.8268 20.0653V60.3737H15.8268V20.0653H11.8268ZM7.56154 12.5668C4.68803 12.5668 2.3125 10.1716 2.3125 7.24904H-1.6875C-1.6875 12.3315 2.42998 16.5668 7.56154 16.5668V12.5668ZM2.3125 7.24904C2.3125 5.85691 2.86552 4.5218 3.84991 3.53741L1.02148 0.708982C-0.71305 2.44351 -1.6875 4.79604 -1.6875 7.24904H2.3125ZM3.84991 3.53741C4.8343 2.55302 6.16941 2 7.56154 2V-2C5.10854 -2 2.75601 -1.02555 1.02148 0.708982L3.84991 3.53741ZM7.56154 2C8.95368 2 10.2888 2.55302 11.2732 3.53741L14.1016 0.708982C12.3671 -1.02555 10.0145 -2 7.56154 -2V2ZM11.2732 3.53741C12.2576 4.5218 12.8106 5.85691 12.8106 7.24904H16.8106C16.8106 4.79604 15.8361 2.44351 14.1016 0.708982L11.2732 3.53741ZM12.8106 7.24904C12.8106 10.1714 10.434 12.5668 7.56154 12.5668V16.5668C12.6915 16.5668 16.8106 12.3318 16.8106 7.24904H12.8106ZM60.674 58.3737H48.1839V62.3737H60.674V58.3737ZM50.1839 60.3737V40.7518H46.1839V60.3737H50.1839ZM50.1839 40.7518C50.1839 38.501 50.186 35.4284 49.1946 32.925C48.676 31.6157 47.852 30.3613 46.5429 29.4481C45.2295 28.532 43.5986 28.0783 41.6761 28.0783V32.0783C42.9604 32.0783 43.7463 32.3744 44.2544 32.7288C44.7668 33.0862 45.1689 33.6234 45.4756 34.3979C46.1347 36.0621 46.1839 38.3262 46.1839 40.7518H50.1839ZM41.6761 28.0783C39.7892 28.0783 38.1565 28.4476 36.7892 29.2046C35.4104 29.968 34.4212 31.0598 33.7318 32.3098C32.4049 34.7158 32.171 37.7502 32.171 40.4149H36.171C36.171 37.8237 36.4358 35.6898 37.2345 34.2415C37.6079 33.5644 38.0882 33.0575 38.7267 32.7041C39.3767 32.3442 40.3091 32.0783 41.6761 32.0783V28.0783ZM32.171 40.4149V60.3737H36.171V40.4149H32.171ZM34.171 58.3737H21.6675V62.3737H34.171V58.3737ZM23.6675 60.3737V20.0653H19.6675V60.3737H23.6675ZM21.6675 22.0653H33.6724V18.0653H21.6675V22.0653ZM31.6724 20.0653V25.5637H35.6724V20.0653H31.6724ZM33.6724 27.5637H33.8476V23.5637H33.6724V27.5637ZM35.6164 26.497C36.958 23.9546 40.3775 21.0545 45.6908 21.0545V17.0545C38.8239 17.0545 34.0793 20.8388 32.0787 24.6303L35.6164 26.497ZM45.6908 21.0545C51.5315 21.0545 54.5402 22.9343 56.2471 25.6455C58.0877 28.5689 58.6875 32.8573 58.6875 38.2317H62.6875C62.6875 32.7709 62.123 27.4707 59.6321 23.5143C57.0077 19.3458 52.5181 17.0545 45.6908 17.0545V21.0545ZM58.6875 38.2317V60.3737H62.6875V38.2317H58.6875ZM60.6875 58.3737H60.674V62.3737H60.6875V58.3737Z" fill="white" mask="url(#path-1-inside-1_127_59)"/>
</svg>
