<svg width="13" height="14" viewBox="0 0 13 14" fill="none" xmlns="http://www.w3.org/2000/svg">
<g clip-path="url(#clip0_6_9)">
<path d="M5.60002 13.1C5.10002 12.3 4.90002 10.7 3.90002 9.59999C2.90002 8.59999 1.20002 8.39999 0.400024 7.89999C-0.0999756 7.49999 -0.0999756 6.49999 0.400024 6.09999C1.20002 5.59999 2.70002 5.49999 3.90002 4.29999C5.00002 3.29999 5.10002 1.69999 5.60002 0.899994C6.00002 0.399994 7.00002 0.399994 7.40002 0.899994C7.90002 1.69999 8.10002 3.29999 9.20002 4.39999C10.4 5.59999 11.8 5.59999 12.7 6.09999C13.3 6.49999 13.3 7.49999 12.7 7.79999C11.8 8.39999 10.2 8.49999 9.10003 9.59999C8.10003 10.6 7.90002 12.3 7.40002 13.1C7.00002 13.6 6.00002 13.6 5.60002 13.1Z" fill="#424550"/>
</g>
<defs>
<clipPath id="clip0_6_9">
<rect width="13" height="13" fill="white" transform="translate(0 0.5)"/>
</clipPath>
</defs>
</svg>
